<svg class="diagram-root" style="background: #f5f6f6" xmlns="http://www.w3.org/2000/svg" xmlns:xlink="http://www.w3.org/1999/xlink"><style>.diagram-root { font-family: "Helvetica Neue", sans-serif; font-size: 12px; } .t { overflow: visible; } .t-bg { y: 40; fill: #fff;   } .th { fill: #005aa0;   } .tht { fill: #fff; font-size: 14px;  } .tf { fill: #323c46; overflow: visible; } .tf.pk { fill: #005aa0; font-weight: bold; } .tf.fk { font-weight: bold; } .ty { fill: #adb1b5; font-weight: normal; text-anchor: end; } .r { fill: transparent; stroke: #c3c3c3; stroke-width: 1; } .l { stroke: 1; } .i { fill: #c2c7ce; stroke: #c2c7ce; } .i.ix { fill: #afb3b6; stroke: #000; } .fa { fill: transparent; overflow: visible; } .fa .bg.hover { fill: #f7f7f7; } .c { cy: 12; r: 4; stroke: #d2d2dc; fill: #d2d2dc; } .hr { fill: transparent; stroke: #323c46; stroke-opacity: 0.035; stroke-width: 13; } .dc { stroke: #fa5a3c; fill: #fa5a3c; } .x { stroke: white; stroke-width: 1; } .hl .th { fill: #1b9bff; } .hl .tht {  } .fhl .bg { fill: #e7f4ff; } .fhls .bg {  } .r.hl { stroke: #1b9bff; } .dim { opacity: 0.25; }</style><g class="drawing-wrapper" transform="translate(-74.8055555555556, 99.44666666666672) scale(1,1)"><g class="rs"><path d="M 673.44 292 m -1, 0 a 1,1 0 1,0 2,0 a 1,1 0 1,0 -2,0 M 673.44 292 m -0.5, 0 a 0.5,0.5 0 1,0 1,0 a 0.5,0.5 0 1,0 -1,0  M673.44 292 L673.44 292 685.44 292 M 673.44 298 m -1, 0 a 1,1 0 1,0 2,0 a 1,1 0 1,0 -2,0 M 673.44 298 m -0.5, 0 a 0.5,0.5 0 1,0 1,0 a 0.5,0.5 0 1,0 -1,0  M673.44 298 L673.44 298 680.44 292 673.44 286 M 673.44 286 m -1, 0 a 1,1 0 1,0 2,0 a 1,1 0 1,0 -2,0 M 673.44 286 m -0.5, 0 a 0.5,0.5 0 1,0 1,0 a 0.5,0.5 0 1,0 -1,0  M685.44 292 Q 737.23 292, 789.01 203.05 T 892.58 114.09 M 904.58 114.09 m -1, 0 a 1,1 0 1,0 2,0 a 1,1 0 1,0 -2,0 M 904.58 114.09 m -0.5, 0 a 0.5,0.5 0 1,0 1,0 a 0.5,0.5 0 1,0 -1,0  M904.58 114.09 L904.58 114.09 892.58 114.09 M898.58 120.09 L898.58 120.09 898.58 108.09" id="h1139284389" class="r"></path><path d="M 504.44 317 m -1, 0 a 1,1 0 1,0 2,0 a 1,1 0 1,0 -2,0 M 504.44 317 m -0.5, 0 a 0.5,0.5 0 1,0 1,0 a 0.5,0.5 0 1,0 -1,0  M504.44 317 L504.44 317 492.44 317 M 504.44 323 m -1, 0 a 1,1 0 1,0 2,0 a 1,1 0 1,0 -2,0 M 504.44 323 m -0.5, 0 a 0.5,0.5 0 1,0 1,0 a 0.5,0.5 0 1,0 -1,0  M504.44 323 L504.44 323 497.44 317 504.44 311 M 504.44 311 m -1, 0 a 1,1 0 1,0 2,0 a 1,1 0 1,0 -2,0 M 504.44 311 m -0.5, 0 a 0.5,0.5 0 1,0 1,0 a 0.5,0.5 0 1,0 -1,0  M492.44 317 Q 447.04 317, 401.63 262.97 T 310.81 208.94 M 298.81 208.94 m -1, 0 a 1,1 0 1,0 2,0 a 1,1 0 1,0 -2,0 M 298.81 208.94 m -0.5, 0 a 0.5,0.5 0 1,0 1,0 a 0.5,0.5 0 1,0 -1,0  M298.81 208.94 L298.81 208.94 310.81 208.94 M304.81 214.94 L304.81 214.94 304.81 202.94" id="h1607168654" class="r"></path><path d="M 669 118.11 m -1, 0 a 1,1 0 1,0 2,0 a 1,1 0 1,0 -2,0 M 669 118.11 m -0.5, 0 a 0.5,0.5 0 1,0 1,0 a 0.5,0.5 0 1,0 -1,0  M669 118.11 L669 118.11 681 118.11 M 669 124.11 m -1, 0 a 1,1 0 1,0 2,0 a 1,1 0 1,0 -2,0 M 669 124.11 m -0.5, 0 a 0.5,0.5 0 1,0 1,0 a 0.5,0.5 0 1,0 -1,0  M669 124.11 L669 124.11 676 118.11 669 112.11 M 669 112.11 m -1, 0 a 1,1 0 1,0 2,0 a 1,1 0 1,0 -2,0 M 669 112.11 m -0.5, 0 a 0.5,0.5 0 1,0 1,0 a 0.5,0.5 0 1,0 -1,0  M681 118.11 Q 733.9 118.11, 786.79 116.1 T 892.58 114.09 M 904.58 114.09 m -1, 0 a 1,1 0 1,0 2,0 a 1,1 0 1,0 -2,0 M 904.58 114.09 m -0.5, 0 a 0.5,0.5 0 1,0 1,0 a 0.5,0.5 0 1,0 -1,0  M904.58 114.09 L904.58 114.09 892.58 114.09 M898.58 120.09 L898.58 120.09 898.58 108.09" id="h2286254435" class="r"></path><path d="M 500 143.11 m -1, 0 a 1,1 0 1,0 2,0 a 1,1 0 1,0 -2,0 M 500 143.11 m -0.5, 0 a 0.5,0.5 0 1,0 1,0 a 0.5,0.5 0 1,0 -1,0  M500 143.11 L500 143.11 488 143.11 M 500 149.11 m -1, 0 a 1,1 0 1,0 2,0 a 1,1 0 1,0 -2,0 M 500 149.11 m -0.5, 0 a 0.5,0.5 0 1,0 1,0 a 0.5,0.5 0 1,0 -1,0  M500 149.11 L500 149.11 493 143.11 500 137.11 M 500 137.11 m -1, 0 a 1,1 0 1,0 2,0 a 1,1 0 1,0 -2,0 M 500 137.11 m -0.5, 0 a 0.5,0.5 0 1,0 1,0 a 0.5,0.5 0 1,0 -1,0  M488 143.11 Q 443.71 143.11, 399.41 176.03 T 310.81 208.94 M 298.81 208.94 m -1, 0 a 1,1 0 1,0 2,0 a 1,1 0 1,0 -2,0 M 298.81 208.94 m -0.5, 0 a 0.5,0.5 0 1,0 1,0 a 0.5,0.5 0 1,0 -1,0  M298.81 208.94 L298.81 208.94 310.81 208.94 M304.81 214.94 L304.81 214.94 304.81 202.94" id="h1397587031" class="r"></path><path d="M 904.58 139.09 m -1, 0 a 1,1 0 1,0 2,0 a 1,1 0 1,0 -2,0 M 904.58 139.09 m -0.5, 0 a 0.5,0.5 0 1,0 1,0 a 0.5,0.5 0 1,0 -1,0  M904.58 139.09 L904.58 139.09 892.58 139.09 M 904.58 145.09 m -1, 0 a 1,1 0 1,0 2,0 a 1,1 0 1,0 -2,0 M 904.58 145.09 m -0.5, 0 a 0.5,0.5 0 1,0 1,0 a 0.5,0.5 0 1,0 -1,0  M904.58 145.09 L904.58 145.09 897.58 139.09 904.58 133.09 M 904.58 133.09 m -1, 0 a 1,1 0 1,0 2,0 a 1,1 0 1,0 -2,0 M 904.58 133.09 m -0.5, 0 a 0.5,0.5 0 1,0 1,0 a 0.5,0.5 0 1,0 -1,0  M892.58 139.09 Q 844.45 139.09, 796.32 286.8 T 700.06 434.5 M 688.06 434.5 m -1, 0 a 1,1 0 1,0 2,0 a 1,1 0 1,0 -2,0 M 688.06 434.5 m -0.5, 0 a 0.5,0.5 0 1,0 1,0 a 0.5,0.5 0 1,0 -1,0  M688.06 434.5 L688.06 434.5 700.06 434.5 M694.06 440.5 L694.06 440.5 694.06 428.5" id="h1537058300" class="r"></path><path d="M 622.05 -12.450000000000003 m -1, 0 a 1,1 0 1,0 2,0 a 1,1 0 1,0 -2,0 M 622.05 -12.450000000000003 m -0.5, 0 a 0.5,0.5 0 1,0 1,0 a 0.5,0.5 0 1,0 -1,0  M622.05 -12.450000000000003 L622.05 -12.450000000000003 634.05 -12.450000000000003 M 622.05 -6.450000000000003 m -1, 0 a 1,1 0 1,0 2,0 a 1,1 0 1,0 -2,0 M 622.05 -6.450000000000003 m -0.5, 0 a 0.5,0.5 0 1,0 1,0 a 0.5,0.5 0 1,0 -1,0  M622.05 -6.450000000000003 L622.05 -6.450000000000003 629.05 -12.450000000000003 622.05 -18.450000000000003 M 622.05 -18.450000000000003 m -1, 0 a 1,1 0 1,0 2,0 a 1,1 0 1,0 -2,0 M 622.05 -18.450000000000003 m -0.5, 0 a 0.5,0.5 0 1,0 1,0 a 0.5,0.5 0 1,0 -1,0  M634.05 -12.450000000000003 Q 698.69 -12.450000000000003, 763.32 50.82 T 892.58 114.09 M 904.58 114.09 m -1, 0 a 1,1 0 1,0 2,0 a 1,1 0 1,0 -2,0 M 904.58 114.09 m -0.5, 0 a 0.5,0.5 0 1,0 1,0 a 0.5,0.5 0 1,0 -1,0  M904.58 114.09 L904.58 114.09 892.58 114.09 M898.58 120.09 L898.58 120.09 898.58 108.09" id="h3177548053" class="r"></path></g><g class="hrs"></g><g class="ts"><svg width="202" height="100" x="96.81" y="151.94" id="h475896179" class="t"><rect height="40" width="202" class="th"></rect><text x="13" y="25" class="tht">departments</text><rect height="60" width="202" class="t-bg" y="40"></rect><text x="13" y="61" class="tf pk">dept_no<tspan x="189" class="ty">VARCHAR(10)</tspan></text><path d="M7,14A2,2 0 0,1 5,12A2,2 0 0,1 7,10A2,2 0 0,1 9,12A2,2 0 0,1 7,14M12.65,10C11.83,7.67 9.61,6 7, 6A6, 6 0 0, 0 1, 12A6, 6 0 0, 0 7, 18C9.61, 18 11.83, 16.33 12.65, 14H17V18H21V14H23V10H12.65Z" class="i pk" transform="translate(91, 48) scale(0.65)"></path><text x="13" y="86" class="tf">dept_name<tspan x="189" class="ty">VARCHAR(30)</tspan></text><path d="M814.545 581.818v-23.273H535.273v-93.09h-46.546v93.09H209.455v139.637H256V605.09h232.727v93.09h46.546v-93.09H768v93.09h46.545V581.819zM674.91 465.455H349.091V139.636h325.818v325.819zM325.82 884.364H139.635V698.182h186.182v186.182z m279.272 0H418.909V698.182h186.182v186.182z m279.273 0H698.182V698.182h186.182v186.182zM395.636 418.909h232.728V186.182H395.636v232.727zM186.182 837.82h93.09v-93.092h-93.09v93.091z m279.273 0h93.09v-93.092h-93.09v93.091z m279.272 0h93.091v-93.092h-93.09v93.091z" class="i ix" transform="translate(96, 75) scale(0.014)"></path></svg><svg width="169" height="100" x="504.44" y="235" id="h1090417462" class="t"><rect height="40" width="169" class="th"></rect><text x="13" y="25" class="tht">dept_emp</text><rect height="60" width="169" class="t-bg" y="40"></rect><text x="13" y="61" class="tf fk">emp_no<tspan x="156" class="ty">INT</tspan></text><text x="13" y="86" class="tf fk">dept_no<tspan x="156" class="ty">VARCHAR(10)</tspan></text></svg><svg width="169" height="100" x="500" y="61.11" id="h1676682957" class="t"><rect height="40" width="169" class="th"></rect><text x="13" y="25" class="tht">dept_manager</text><rect height="60" width="169" class="t-bg" y="40"></rect><text x="13" y="61" class="tf fk">emp_no<tspan x="156" class="ty">INT</tspan></text><text x="13" y="86" class="tf fk">dept_no<tspan x="156" class="ty">VARCHAR(10)</tspan></text></svg><svg width="259" height="325" x="904.58" y="57.09" id="h1639608377" class="t"><rect height="40" width="259" class="th"></rect><text x="13" y="25" class="tht">employees</text><rect height="285" width="259" class="t-bg" y="40"></rect><text x="13" y="61" class="tf pk">emp_no<tspan x="246" class="ty">INT</tspan></text><path d="M7,14A2,2 0 0,1 5,12A2,2 0 0,1 7,10A2,2 0 0,1 9,12A2,2 0 0,1 7,14M12.65,10C11.83,7.67 9.61,6 7, 6A6, 6 0 0, 0 1, 12A6, 6 0 0, 0 7, 18C9.61, 18 11.83, 16.33 12.65, 14H17V18H21V14H23V10H12.65Z" class="i pk" transform="translate(207, 48) scale(0.65)"></path><text x="13" y="86" class="tf fk">emp_title_id<tspan x="246" class="ty">VARCHAR(10)</tspan></text><text x="13" y="111" class="tf">birth_date<tspan x="246" class="ty">DATE</tspan></text><text x="13" y="136" class="tf">first_name<tspan x="246" class="ty">VARCHAR(30)</tspan></text><text x="13" y="161" class="tf">last_name<tspan x="246" class="ty">VARCHAR(30)</tspan></text><text x="13" y="186" class="tf">sex<tspan x="246" class="ty">CHAR(1)</tspan></text><text x="13" y="211" class="tf">hire_date<tspan x="246" class="ty">DATE</tspan></text><text x="13" y="236" class="tf">no_of_projects<tspan x="246" class="ty">INT</tspan></text><text x="13" y="261" class="tf">last_performance_rating<tspan x="246" class="ty">VARCHAR(10)</tspan></text><text x="13" y="286" class="tf">left<tspan x="246" class="ty">BIT</tspan></text><text x="13" y="311" class="tf">last_date<tspan x="246" class="ty">DATE</tspan></text></svg><svg width="180" height="100" x="508.06" y="377.5" id="h311790747" class="t"><rect height="40" width="180" class="th"></rect><text x="13" y="25" class="tht">titles</text><rect height="60" width="180" class="t-bg" y="40"></rect><text x="13" y="61" class="tf pk">title_id<tspan x="167" class="ty">VARCHAR(10)</tspan></text><path d="M7,14A2,2 0 0,1 5,12A2,2 0 0,1 7,10A2,2 0 0,1 9,12A2,2 0 0,1 7,14M12.65,10C11.83,7.67 9.61,6 7, 6A6, 6 0 0, 0 1, 12A6, 6 0 0, 0 7, 18C9.61, 18 11.83, 16.33 12.65, 14H17V18H21V14H23V10H12.65Z" class="i pk" transform="translate(69, 48) scale(0.65)"></path><text x="13" y="86" class="tf">title<tspan x="167" class="ty">VARCHAR(30)</tspan></text><path d="M814.545 581.818v-23.273H535.273v-93.09h-46.546v93.09H209.455v139.637H256V605.09h232.727v93.09h46.546v-93.09H768v93.09h46.545V581.819zM674.91 465.455H349.091V139.636h325.818v325.819zM325.82 884.364H139.635V698.182h186.182v186.182z m279.272 0H418.909V698.182h186.182v186.182z m279.273 0H698.182V698.182h186.182v186.182zM395.636 418.909h232.728V186.182H395.636v232.727zM186.182 837.82h93.09v-93.092h-93.09v93.091z m279.273 0h93.09v-93.092h-93.09v93.091z m279.272 0h93.091v-93.092h-93.09v93.091z" class="i ix" transform="translate(74, 75) scale(0.014)"></path></svg><svg width="111" height="100" x="511.05" y="-69.45" id="h2472833127" class="t"><rect height="40" width="111" class="th"></rect><text x="13" y="25" class="tht">salaries</text><rect height="60" width="111" class="t-bg" y="40"></rect><text x="13" y="61" class="tf fk">emp_no<tspan x="98" class="ty">INT</tspan></text><text x="13" y="86" class="tf">salary<tspan x="98" class="ty">INT</tspan></text></svg></g></g><text class="qdbd-link" x="10" y="20">www.quickdatabasediagrams.com</text></svg>